<?xml version="1.0" encoding="UTF-8"?>
<svg id="Capa_1" data-name="Capa 1" xmlns="http://www.w3.org/2000/svg" viewBox="0 0 34 34">
  <defs>
    <style>
      .cls-1 {
        fill: #fff;
      }
    </style>
  </defs>
  <g>
    <polygon class="cls-1" points="14.1 10.61 19.82 10.61 21.01 6.43 19.59 6.43 19.1 8.52 17.66 8.52 17.66 6.43 16.25 6.43 16.25 8.52 14.85 8.52 14.28 6.43 12.99 6.43 14.1 10.61"/>
    <path class="cls-1" d="M13.01,12.31c-.23-.71-.46-1.42-.68-2.13-.41-1.28-.82-2.56-1.23-3.83-.04-.11-.02-.17.08-.24,1.74-1.28,3.48-2.56,5.21-3.84.21-.15.41-.3.63-.46.34.25.68.51,1.02.76,1.35,1.01,2.7,2.02,4.06,3.03.26.2.53.4.8.59.07.05.07.09.05.16-.54,1.61-1.07,3.21-1.61,4.82-.12.35-.23.69-.34,1.04-.02.07-.05.1-.13.1-2.59,0-5.17,0-7.76,0-.02,0-.03,0-.07,0ZM17,2.76s-.09.07-.13.1c-.68.5-1.36,1-2.04,1.5-.93.69-1.87,1.38-2.8,2.07-.06.04-.09.08-.06.16.53,1.62,1.05,3.25,1.57,4.87.02.08.06.1.14.1,2.2,0,4.41,0,6.61,0,.08,0,.11-.03.14-.1.53-1.6,1.06-3.2,1.6-4.8.03-.1.01-.14-.07-.2-.63-.47-1.25-.94-1.88-1.41-1.02-.76-2.03-1.52-3.06-2.29Z"/>
  </g>
  <path class="cls-1" d="M21.82,29.68c-1.36.71-2.72,1.41-4.08,2.11-.2.1-.41.19-.6.31-.19.12-.34.12-.54,0-1.35-.73-2.71-1.45-4.06-2.17-.23-.12-.45-.25-.71-.4.36-.44.69-.82,1-1.21.97-1.22,1.77-2.56,2.27-4.09.19-.57.3-1.19.37-1.8.08-.67.12-1.36.08-2.03-.06-.98-.29-1.92-.65-2.82-.46-1.13-1.04-2.18-1.76-3.14-.34-.46-.72-.89-1.08-1.33h9.76c-.39.47-.8.93-1.15,1.43-.46.66-.88,1.36-1.28,2.07-.47.83-.78,1.74-.97,2.69-.21,1.07-.25,2.14-.08,3.24.25,1.61.86,3.04,1.7,4.35.54.84,1.21,1.59,1.83,2.36.17.21.18.3-.06.42Z"/>
</svg>